<?xml version="1.0" encoding="utf-8"?>
<!-- Generator: Adobe Illustrator 24.0.3, SVG Export Plug-In . SVG Version: 6.00 Build 0)  -->
<svg version="1.1" id="Layer_1" xmlns="http://www.w3.org/2000/svg" xmlns:xlink="http://www.w3.org/1999/xlink" x="0px" y="0px"
	 viewBox="0 0 90 15" style="enable-background:new 0 0 90 15;" xml:space="preserve">
<style type="text/css">
	.st0{fill:#4D4E4E;}
	.st1{fill:#5C9EAD;}
</style>
<g>
	<g>
		<g>
			<path class="st0" d="M11.23,10.38V6.03c0-0.51-0.16-0.89-0.46-1.12c-0.31-0.23-0.66-0.35-1.04-0.35C9.34,4.55,9,4.67,8.7,4.91
				C8.4,5.14,8.25,5.51,8.25,6.03v0.38c0,0.07,0,0.15-0.01,0.22v1.45c0,0.85-0.16,1.52-0.46,2c-0.31,0.48-0.68,0.83-1.1,1.04
				c-0.45,0.24-0.92,0.38-1.43,0.43c-0.4,0.04-0.75,0.07-1.08,0.08c0.97,0.78,2.21,1.24,3.55,1.24c1.53,0,2.92-0.61,3.95-1.59
				c-0.05-0.03-0.09-0.07-0.13-0.11C11.33,10.97,11.23,10.7,11.23,10.38z"/>
			<path class="st0" d="M4.2,6.2c0.15-0.03,0.32-0.06,0.51-0.08C5.65,6,6.12,5.72,6.12,5.29c0-0.32-0.17-0.53-0.5-0.62
				C5.3,4.57,4.99,4.52,4.71,4.52c-0.3,0-0.57,0.04-0.8,0.13C3.68,4.74,3.51,4.9,3.4,5.13H2.42C2.21,5.67,2.08,6.26,2.04,6.87
				c0.49-0.3,1.08-0.51,1.78-0.62C3.92,6.25,4.05,6.24,4.2,6.2z"/>
			<path class="st0" d="M7.31,3.37C7.33,3.39,7.36,3.4,7.38,3.42c0.17-0.1,0.32-0.14,0.32-0.14C7.07,2.24,7.85,1.51,7.71,1.51
				c-1.36,0-2.61,0.48-3.59,1.27c0.16-0.01,0.32-0.02,0.49-0.02C5.81,2.76,6.71,2.96,7.31,3.37z"/>
			<path class="st0" d="M4.17,7.76C3.79,7.86,3.51,8,3.34,8.17c-0.15,0.24-0.22,0.47-0.22,0.7c0,0.32,0.1,0.58,0.29,0.77
				C3.59,9.82,3.87,9.9,4.23,9.9c0.6,0,1.07-0.17,1.41-0.51c0.34-0.34,0.51-0.81,0.51-1.41v-0.8C5.86,7.33,5.44,7.47,4.91,7.6
				L4.17,7.76z"/>
		</g>
	</g>
	<circle class="st1" cx="9.75" cy="2.52" r="1.52"/>
</g>
<g>
	<path class="st0" d="M18.45,9.49c0,0,0-0.13,0-0.22c0.61,0,0.66-0.29,0.42-0.92l-0.2-0.45h-1.95c0,0-0.08,0.2-0.18,0.45
		C16.32,9,16.56,9.27,17.16,9.27c0,0.17,0,0.22,0,0.22h-1.97c0,0,0-0.13,0-0.22c0.61,0,0.82-0.43,1.01-0.92l1.75-4.46h0.38
		l1.94,4.46c0.24,0.51,0.34,0.92,0.94,0.92c0,0.17,0,0.22,0,0.22H18.45z M18.53,7.58l-0.89-2.02l-0.79,2.02H18.53z"/>
	<path class="st0" d="M25.98,8.97c-0.19,0.41-0.47,0.59-0.92,0.59c-0.54,0-0.9-0.19-1-0.64c-0.23,0.34-0.62,0.64-1.26,0.64
		c-0.8,0-1.38-0.42-1.39-1.42v-0.6c0-0.5,0.02-0.92-0.59-0.92c0-0.1,0-0.13,0-0.22c0.46,0,1.18-0.2,1.67-0.62c0.14,0,0.22,0,0.22,0
		v2.23c0,0.47,0.14,0.9,0.68,0.9c0.49,0,0.65-0.42,0.65-0.95V7.55c0-0.5,0.02-0.92-0.59-0.92c0-0.1,0-0.13,0-0.22
		c0.46,0,1.18-0.2,1.67-0.62c0.14,0,0.22,0,0.22,0v2.56c0,0.38,0.01,0.66,0.2,0.71c0.14,0.04,0.24-0.03,0.32-0.17L25.98,8.97z"/>
	<path class="st0" d="M28.72,8.68c-0.21,0.5-0.52,0.88-1.11,0.88c-0.64,0-1.16-0.42-1.16-1.28c0,0,0-1.86,0-2.11h-0.62
		c0,0,0-0.22,0-0.31c0.79-0.04,1.51-0.49,1.67-1.35c0.14,0,0.25,0,0.25,0v1.35h0.85v0.31h-0.85v2.17c0,0.38,0.14,0.48,0.33,0.52
		c0.21,0.03,0.38-0.06,0.5-0.26L28.72,8.68z"/>
	<path class="st0" d="M32.95,7.68c0,1.13-0.87,1.89-2.07,1.89c-1.21,0-2.08-0.76-2.08-1.89c0-1.13,0.87-1.89,2.08-1.89
		C32.08,5.79,32.95,6.55,32.95,7.68z M31.64,7.54c-0.17-0.96-0.55-1.53-1.04-1.44c-0.49,0.09-0.65,0.75-0.48,1.71
		c0.17,0.95,0.55,1.52,1.03,1.44C31.64,9.16,31.81,8.5,31.64,7.54z"/>
	<path class="st0" d="M35.31,5.03v3.32c0,0.5,0.14,0.92,0.75,0.92c0,0.17,0,0.22,0,0.22h-2.87c0,0,0-0.12,0-0.22
		c0.62,0,0.75-0.42,0.75-0.92V5.03c0-0.5-0.14-0.92-0.75-0.92c0-0.1,0-0.22,0-0.22h2.87c0,0,0,0.06,0,0.22
		C35.45,4.11,35.31,4.53,35.31,5.03z"/>
	<path class="st0" d="M41.89,9.28c0,0.17,0,0.22,0,0.22h-2.57c0,0,0-0.12,0-0.22c0.61,0,0.62-0.43,0.56-0.92
		c0,0-0.11-0.73-0.16-1.02c-0.07-0.47-0.13-0.9-0.68-0.9c-0.48,0-0.68,0.42-0.68,0.96v0.97c0,0.5,0.05,0.92,0.66,0.92
		c0,0.17,0,0.22,0,0.22h-2.63c0,0,0-0.12,0-0.22c0.61,0,0.69-0.42,0.69-0.92V7.55c0-0.5-0.08-0.92-0.69-0.92c0-0.1,0-0.13,0-0.22
		c0.46,0,1.28-0.2,1.76-0.62c0.14,0,0.22,0,0.22,0v0.62c0.24-0.34,0.62-0.62,1.27-0.62c0.81,0,1.24,0.43,1.38,1.44
		c0.11,0.8,0.15,1.13,0.15,1.13C41.23,8.83,41.28,9.28,41.89,9.28z"/>
	<path class="st0" d="M45.6,8.64c-0.16,0.78-1.18,0.98-1.99,0.93c-0.66-0.03-1.56-0.3-1.69-0.82c-0.12-0.49,0.25-0.94,0.74-0.86
		c0.41,0.06,0.58,0.35,0.58,0.67C43,8.53,42.84,8.7,42.89,8.94c0.05,0.22,0.42,0.31,0.74,0.34c0.43,0.02,0.78-0.14,0.81-0.39
		c0.06-0.42-0.3-0.54-0.86-0.83c-0.53-0.27-1.25-0.62-1.16-1.39c0.1-0.78,0.89-0.95,1.59-0.87c0.52,0.06,0.64,0.3,0.71,0
		c0.05,0,0.14,0,0.14,0l0.08,1.24h-0.19C44.6,6.38,44.42,6.13,44,6.08c-0.28-0.04-0.48,0.06-0.5,0.28
		c-0.04,0.31,0.31,0.46,0.86,0.76C44.92,7.43,45.78,7.74,45.6,8.64z"/>
	<path class="st0" d="M50.63,8.97c-0.19,0.41-0.47,0.59-0.92,0.59c-0.54,0-0.9-0.19-1-0.64c-0.23,0.34-0.62,0.64-1.27,0.64
		c-0.8,0-1.38-0.42-1.38-1.42v-0.6c0-0.5,0.02-0.92-0.59-0.92c0-0.1,0-0.13,0-0.22c0.46,0,1.18-0.2,1.67-0.62c0.14,0,0.22,0,0.22,0
		v2.23c0,0.47,0.14,0.9,0.68,0.9c0.49,0,0.65-0.42,0.65-0.95V7.55c0-0.5,0.02-0.92-0.59-0.92c0-0.1,0-0.13,0-0.22
		c0.46,0,1.18-0.2,1.67-0.62c0.14,0,0.22,0,0.22,0v2.56c0,0.38,0.01,0.66,0.2,0.71c0.14,0.04,0.24-0.03,0.32-0.17L50.63,8.97z"/>
	<path class="st0" d="M54.64,6.87c-0.19,0.46-0.68,0.54-0.94,0.44c0.08-0.28,0.08-0.62-0.23-0.73c-0.36-0.11-0.65,0.09-0.68,0.45
		v1.33c0,0.5,0.05,0.92,0.66,0.92c0,0.17,0,0.22,0,0.22h-2.64c0,0,0-0.12,0-0.22c0.62,0,0.69-0.42,0.69-0.92V7.55
		c0-0.5-0.07-0.92-0.69-0.92c0-0.1,0-0.13,0-0.22c0.47,0,1.28-0.2,1.77-0.62c0.14,0,0.22,0,0.22,0v0.72
		c0.26-0.49,0.64-0.82,1.23-0.72C54.59,5.88,54.81,6.41,54.64,6.87z"/>
	<path class="st0" d="M59.15,9.25c-0.14,0.17-0.39,0.31-0.84,0.31c-0.43,0-0.94-0.14-1.06-0.53c-0.28,0.43-0.73,0.53-1.13,0.53
		c-0.66,0-1.29-0.22-1.4-0.8c-0.11-0.58,0.18-1.13,1.13-1.32c0.75-0.15,1.22,0.01,1.13-0.54c-0.07-0.41-0.22-0.83-0.62-0.83
		c-0.5-0.04-0.74,0.46-0.42,0.71c-0.19,0.34-0.52,0.37-0.74,0.26c-0.21-0.1-0.3-0.33-0.18-0.61c0.19-0.52,0.89-0.65,1.35-0.65
		c1.28,0,1.81,0.42,1.95,1.43c0.11,0.81,0.15,1.13,0.15,1.13c0.05,0.28,0.1,0.6,0.18,0.7c0.09,0.1,0.26,0.11,0.45,0.02
		C59.12,9.16,59.13,9.17,59.15,9.25z M57.16,8.25c-0.02-0.29-0.06-0.58-0.09-0.78c-0.06,0.13-0.15,0.17-0.56,0.28
		c-0.34,0.1-0.58,0.4-0.53,0.81c0.06,0.37,0.42,0.59,0.71,0.51C57.08,8.98,57.18,8.64,57.16,8.25z"/>
	<path class="st0" d="M64.9,9.28c0,0.17,0,0.22,0,0.22h-2.57c0,0,0-0.12,0-0.22c0.61,0,0.62-0.43,0.56-0.92c0,0-0.11-0.73-0.16-1.02
		c-0.07-0.47-0.13-0.9-0.68-0.9c-0.48,0-0.68,0.42-0.68,0.96v0.97c0,0.5,0.05,0.92,0.66,0.92c0,0.17,0,0.22,0,0.22h-2.63
		c0,0,0-0.12,0-0.22c0.61,0,0.69-0.42,0.69-0.92V7.55c0-0.5-0.08-0.92-0.69-0.92c0-0.1,0-0.13,0-0.22c0.46,0,1.28-0.2,1.76-0.62
		c0.14,0,0.22,0,0.22,0v0.62c0.24-0.34,0.62-0.62,1.27-0.62c0.81,0,1.24,0.43,1.39,1.44c0.11,0.8,0.15,1.13,0.15,1.13
		C64.24,8.83,64.29,9.28,64.9,9.28z"/>
	<path class="st0" d="M68.75,8.35c-0.26,0.6-0.84,1.22-1.83,1.22c-1.2,0-2.01-0.74-2.09-1.71c-0.11-1.29,0.86-2.07,2.06-2.07
		c1.18,0,1.57,0.48,1.63,0.94c0.05,0.31-0.06,0.65-0.34,0.78c-0.3,0.14-0.71,0.05-1.01-0.36c0.42-0.34,0.27-1.13-0.42-1.07
		c-0.42,0.04-0.71,0.5-0.68,1.23c0.05,0.91,0.51,1.34,1.23,1.41c0.54,0.06,0.99-0.13,1.32-0.48C68.62,8.24,68.75,8.34,68.75,8.35z"
		/>
	<path class="st0" d="M72.92,8.35c-0.26,0.6-0.84,1.22-1.83,1.22c-1.21,0-2.01-0.78-2.09-1.74c-0.11-1.29,0.86-2.04,2.06-2.04
		c1.07,0,1.79,0.58,1.75,1.63l-2.47,0.42c0.19,1.03,1.74,1.16,2.44,0.4C72.79,8.24,72.92,8.34,72.92,8.35z M70.3,7.52l1.31-0.22
		c0.04-0.77-0.14-1.27-0.69-1.23C70.42,6.12,70.2,6.76,70.3,7.52z"/>
	<path class="st0" d="M74.8,8.84c0,0.41-0.33,0.73-0.82,0.73c-0.49,0-0.82-0.32-0.82-0.73c0-0.41,0.33-0.73,0.82-0.73
		C74.48,8.11,74.8,8.43,74.8,8.84z"/>
	<path class="st0" d="M79.12,7.68c0,1.13-0.87,1.89-2.07,1.89c-1.21,0-2.08-0.76-2.08-1.89c0-1.13,0.87-1.89,2.08-1.89
		C78.25,5.79,79.12,6.55,79.12,7.68z M77.81,7.54c-0.17-0.96-0.55-1.53-1.04-1.44c-0.49,0.09-0.65,0.75-0.48,1.71
		c0.17,0.95,0.55,1.52,1.03,1.44C77.81,9.16,77.97,8.5,77.81,7.54z"/>
	<path class="st0" d="M83.2,6.87c-0.19,0.46-0.68,0.54-0.94,0.44c0.08-0.28,0.08-0.62-0.23-0.73c-0.36-0.11-0.65,0.09-0.68,0.45
		v1.33c0,0.5,0.05,0.92,0.66,0.92c0,0.17,0,0.22,0,0.22h-2.64c0,0,0-0.12,0-0.22c0.62,0,0.69-0.42,0.69-0.92V7.55
		c0-0.5-0.07-0.92-0.69-0.92c0-0.1,0-0.13,0-0.22c0.47,0,1.28-0.2,1.77-0.62c0.14,0,0.22,0,0.22,0v0.72
		c0.26-0.49,0.64-0.82,1.23-0.72C83.15,5.88,83.38,6.41,83.2,6.87z"/>
	<path class="st0" d="M87.33,10.14c-0.06,1.03-1.34,1.39-2.16,1.39c-0.82,0-1.91-0.15-1.91-0.85c0-0.33,0.26-0.5,0.56-0.6
		c-0.33-0.14-0.58-0.43-0.5-0.85c0.09-0.46,0.5-0.66,0.79-0.77c-0.4-0.26-0.65-0.68-0.65-1.19c0-0.89,0.74-1.49,1.76-1.49
		c0.23,0,0.44,0.03,0.64,0.09c0.04-0.5,0.22-0.92,0.74-0.98c0.45-0.05,0.74,0.26,0.71,0.63c-0.02,0.38-0.36,0.56-0.58,0.55
		c-0.02-0.22-0.1-0.47-0.35-0.47c-0.23-0.01-0.33,0.14-0.31,0.34c0.55,0.24,0.9,0.71,0.9,1.33c0,0.9-0.74,1.5-1.76,1.5
		c-0.3,0-0.59-0.06-0.83-0.16c-0.1,0.07-0.18,0.17-0.17,0.3C84.24,9.2,85,9.18,85.35,9.18C86.03,9.18,87.41,9,87.33,10.14z
		 M86.28,10.56c0-0.17-0.1-0.26-0.34-0.26c-0.22,0-1.06-0.04-1.57-0.08c-0.1,0.09-0.16,0.21-0.18,0.38c-0.02,0.4,0.35,0.7,1.16,0.68
		C86.14,11.25,86.28,10.85,86.28,10.56z M84.61,7.38c0.14,0.76,0.46,1.11,0.85,1.05c0.39-0.06,0.52-0.5,0.38-1.26
		C85.7,6.42,85.36,6.07,85,6.13C84.62,6.19,84.48,6.63,84.61,7.38z"/>
</g>
</svg>
