<?xml version="1.0" encoding="utf-8"?>
<!-- Generator: Adobe Illustrator 24.2.1, SVG Export Plug-In . SVG Version: 6.00 Build 0)  -->
<svg version="1.1" id="Layer_1" xmlns="http://www.w3.org/2000/svg" xmlns:xlink="http://www.w3.org/1999/xlink" x="0px" y="0px"
	 viewBox="0 0 766.8 40" style="enable-background:new 0 0 766.8 40;" xml:space="preserve">
<style type="text/css">
	.st0{fill:#FFFFFF;}
	.st1{fill-rule:evenodd;clip-rule:evenodd;fill:none;}
	.st2{fill-rule:evenodd;clip-rule:evenodd;fill:#FFFFFF;}
</style>
<g>
	<g>
		<g>
			<path class="st0" d="M156.4,24.1c-2.7,0-4.8-2.2-4.8-4.9c0-2.7,2.2-4.9,4.8-4.9c2.3,0,4.3,1.7,4.7,3.9h-2.4
				c-0.4-0.9-1.2-1.5-2.3-1.5c-1.3,0-2.4,1.1-2.4,2.5c0,1.3,1.1,2.5,2.4,2.5c1,0,1.9-0.6,2.3-1.5h2.4
				C160.7,22.4,158.7,24.1,156.4,24.1 M146,24.2c-2.7,0-5-2.1-5-4.8v-8.2h2.4v4.6c0.7-0.7,1.4-1.3,2.6-1.3c2.7,0,4.8,2.2,4.8,4.9
				C150.8,22,148.6,24.2,146,24.2 M138,24.1v-1.3c-0.7,0.7-1.4,1.3-2.6,1.3c-2.7,0-4.8-2.2-4.8-4.9c0-2.7,2.2-4.9,4.8-4.9
				c2.7,0,5,2.1,5,4.8v4.9L138,24.1L138,24.1z M145.8,3.4c-8.9,0-16,7.2-16,16.1c0,8.9,7.2,16.1,16,16.1c8.9,0,16-7.2,16-16.1
				C161.9,10.6,154.7,3.4,145.8,3.4"/>
			<path class="st0" d="M145.9,16.8c-1.3,0-2.4,1.1-2.4,2.5c0,1.3,1.1,2.5,2.4,2.5c1.3,0,2.4-1.1,2.4-2.5
				C148.4,17.9,147.3,16.8,145.9,16.8"/>
			<path class="st0" d="M135.4,16.8c-1.3,0-2.4,1.1-2.4,2.5c0,1.3,1.1,2.5,2.4,2.5c1.3,0,2.4-1.1,2.4-2.5
				C137.9,17.9,136.8,16.8,135.4,16.8"/>
		</g>
		<g>
			<path class="st0" d="M261.5,27c-5,0-9.1-3.3-11.3-7.3c2.2-3.9,6.3-7.1,11.3-7.1c5.1,0,9.2,3.2,11.3,7.1
				C270.6,23.6,266.6,27,261.5,27 M261.5,7.5c-6.8,0-12.2,5.5-12.2,12.2c0,6.8,5.5,12.2,12.2,12.2s12.2-5.5,12.2-12.2
				C273.7,13,268.2,7.5,261.5,7.5"/>
			<path class="st0" d="M261.5,26.3c3.6,0,6.5-2.9,6.5-6.5c0-3.6-2.9-6.5-6.5-6.5c-3.6,0-6.5,2.9-6.5,6.5
				C255,23.3,257.9,26.3,261.5,26.3"/>
			<path class="st0" d="M208.1,8.2h10.9c4.7,0,7.9,2.8,7.9,5.8c0,2.2-0.8,4.2-5.4,5.2c1.8,0.2,6.6,1.5,6.6,6.1
				c0,4.6-5.1,6.8-8.6,6.8h-11.5v-0.2h11.4c2.7,0,4.4-1.1,4.4-6.3c0-5.1-1.9-6.3-4.2-6.4h-3.5V19h3.7c1.5,0,3.1-0.2,3.1-5.2
				c0-4.9-1.9-5.5-4-5.5h-2.9v23.5h-4.4V8.4h-3.6L208.1,8.2L208.1,8.2z"/>
			<path class="st0" d="M192.7,20.3c0-9.1,2.6-12.3,5.8-12.3c4.4,0,6.8,6.5,7.6,9.1V8.3c-0.7,0.6-1.1,0.9-1.9,0.9
				c-0.8,0-2-0.4-2.6-0.7s-1.8-0.6-2.9-0.6c-3.9,0-10.6,5.1-10.6,12.5c0,8.8,6,12.5,10.6,12.5c1.2,0,2.5-0.4,3.1-0.8
				c0.6-0.3,1.7-0.8,2.5-0.8s1.2,0.3,1.9,0.9v-8.8c-0.6,3.4-3.2,9.4-7.6,9.4c-1.2,0-3-0.6-3.8-1.4C194.4,30.9,192.7,29.7,192.7,20.3
				"/>
			<path class="st0" d="M243.9,27.4c0,1.9-1.5,4.5-4.6,4.5c-3.1,0-6.8-2.3-8.2-8.6v8.4c0.6-0.5,1.6-1.5,3.2-0.7
				c1.6,0.7,3.9,1.2,5,1.2c1,0,6.9-1.1,7.1-7.8c0.1-3.4-2.3-5.1-3.8-5.6c-1.7-0.6-4.1-1.4-5.5-1.9c-1.4-0.4-3.7-1.9-3.6-4.7
				c0.1-2.7,1.7-4.2,3.9-4.2c2.2,0,5.2,1.8,6.8,8V7.7c-0.9,0.7-1.6,1.1-2.1,1.1c-0.4,0-1.8-0.5-2.5-0.7c-0.7-0.2-1.5-0.3-2.5-0.3
				c-1.7,0-5.6,2-5.9,7.6c-0.2,4,2.8,5.5,4.1,6c1.2,0.4,4.6,1.6,5.6,2C241.8,23.8,244,25.2,243.9,27.4"/>
		</g>
		<g>
			<path class="st0" d="M318.4,5.9h-5.1c-7.6,0-13.6,6.1-13.6,13.6c0,7.6,6.1,13.6,13.6,13.6h9.6c2.4,0,4.4-1.9,4.4-4.3v-8.3
				l6.6,10.4c0.9,1.3,2.4,2.2,4.2,2.2c2.8,0,5-2.2,5-5v-7.7l6.6,10.4c0.9,1.3,2.4,2.2,4.2,2.2c2.8,0,5-2.2,5-5V5.9h-3.4v22.3
				c0,0.9-0.7,1.6-1.6,1.6c-0.5,0-1-0.3-1.3-0.7l-11.8-18.6c-0.1-0.1-0.3-0.2-0.5-0.2c-0.3,0-0.6,0.2-0.6,0.6v17.3
				c0,0.9-0.7,1.6-1.6,1.6c-0.5,0-1-0.3-1.3-0.7l-11.8-18.6c-0.1-0.1-0.3-0.2-0.5-0.2c-0.3,0-0.6,0.2-0.6,0.6v18
				c0,0.5-0.4,0.9-0.9,0.9h-9.6c-5.7,0-10.2-4.6-10.2-10.2c0-5.7,4.6-10.3,10.2-10.3h5.1L318.4,5.9L318.4,5.9z"/>
			<path class="st0" d="M318.9,25.4c0.2,0,0.5-0.2,0.5-0.5v-14c0-2.8,2.2-5,5-5c1.7,0,3.3,0.9,4.2,2.2l6.6,10.4v-7.6
				c0-2.8,2.2-5,5-5c1.7,0,3.3,0.9,4.2,2.2l6.6,10.4V5.9h3.4v22.3c0,0.3-0.2,0.6-0.6,0.6c-0.2,0-0.4-0.1-0.5-0.2L341.6,10
				c-0.3-0.4-0.8-0.7-1.3-0.7c-0.9,0-1.6,0.7-1.6,1.6v17.3c0,0.3-0.2,0.6-0.6,0.6c-0.2,0-0.3-0.1-0.5-0.2L325.8,10
				c-0.3-0.4-0.8-0.7-1.3-0.7c-0.9,0-1.6,0.7-1.6,1.6v17.5c0,0.2-0.2,0.5-0.5,0.5h-9.1c-5.1,0-9.3-4.2-9.3-9.3
				c0-5.1,4.1-9.3,9.3-9.3h5.1v3.4h-5.1c-3.2,0-5.8,2.6-5.8,5.8c0,3.2,2.6,5.9,5.8,5.9L318.9,25.4L318.9,25.4z"/>
		</g>
		<g>
			<path class="st0" d="M414.2,33.7c-0.3,0-0.5,0.1-0.5,0.5h1.1C414.9,33.8,414.7,33.7,414.2,33.7"/>
			<path class="st0" d="M397.3,34.8c0,0.1,0.1,0.1,0.5,0.1c0.4,0,0.5,0,0.5-0.3v-0.1h-0.5C397.4,34.7,397.3,34.7,397.3,34.8"/>
			<path class="st0" d="M419.1,35.5h-1.1v-3h1.1V35.5L419.1,35.5z M414.2,35c0.3,0,0.5,0,0.6-0.1h1c-0.1,0.5-0.8,0.6-1.6,0.6
				c-1,0-1.6-0.3-1.6-1.1c0-0.6,0.6-1.1,1.6-1.1s1.6,0.5,1.6,1.3h-2.1C413.7,34.8,413.9,35,414.2,35 M410.4,35.5h-1.1v-1.2
				c0-0.3,0-0.5-0.3-0.5c-0.3,0-0.5,0.1-0.5,0.5v1.1h-1.1v-2.1h1v0.3c0.3-0.3,0.6-0.3,1-0.3c0.8,0,1.1,0.1,1.1,0.6L410.4,35.5
				L410.4,35.5z M404.9,35.5h-1v-1.2c0-0.3,0-0.5-0.5-0.5c-0.4,0-0.5,0.1-0.5,0.5v1.1h-1v-2.1h1v0.3c0.1-0.3,0.5-0.3,1-0.3
				c0.6,0,1,0.1,1,0.6V35.5L404.9,35.5z M399.5,35.5h-1v-0.3c-0.3,0.3-0.6,0.3-1.1,0.3c-0.5,0-1-0.2-1-0.6c0-0.3,0.3-0.5,1-0.6
				c0.6,0,1,0,1-0.1s0-0.3-0.3-0.3c-0.3,0-0.5,0.1-0.5,0.3h-1c0.1-0.5,0.6-0.6,1.5-0.6c0.5,0,1,0,1.1,0.1c0.1,0.2,0.1,0.5,0.1,0.6
				v0.8C399.3,35.2,399.4,35.4,399.5,35.5L399.5,35.5L399.5,35.5L399.5,35.5z M394.1,35.5h-1v-1.2c0-0.3,0-0.5-0.5-0.5
				c-0.4,0-0.5,0.1-0.5,0.5v1.1h-1v-3h1v1.1c0.1-0.3,0.5-0.3,1-0.3c0.6,0,1,0.1,1,0.6V35.5L394.1,35.5z M387.3,35
				c0.1,0,0.3-0.1,0.5-0.3h1c-0.1,0.5-0.6,0.8-1.6,0.8c-0.8,0-1.5-0.3-1.5-1.1c0-0.6,0.6-1.1,1.6-1.1c0.8,0,1.3,0.3,1.5,0.8h-1.2
				c0-0.1-0.1-0.1-0.3-0.1c-0.5,0-0.6,0.1-0.6,0.5C386.6,34.8,386.8,35,387.3,35 M384.6,36.2h35.3v-4.5h-35.3V36.2z"/>
			<path class="st0" d="M397.2,5.1c-1.1-0.1-2.3-0.2-3.4-0.2l-0.1,0.3c1.1,0,2.3,0.1,3.4,0.1L397.2,5.1z"/>
			<path class="st0" d="M384.6,6.7v23.8l5.2-25C388.1,5.8,386.3,6.2,384.6,6.7"/>
			<path class="st0" d="M407.1,18.1c0.3,0,0.6-0.3,0.6-0.8l0.1-3.8c0-0.5-0.5-0.8-0.8-0.8c-0.5,0-0.8,0.3-0.8,0.8v3.8
				C406.3,17.7,406.6,18.1,407.1,18.1"/>
			<path class="st0" d="M418.9,23.2l-1.8,0.5c-0.3-0.5-0.6-0.8-1.1-0.8c-0.5,0-0.8,0.4-0.8,0.6c0,0.5,0.5,0.5,1.3,0.8
				c0.6,0.1,1.3,0.3,2,0.8c0.3,0.3,0.6,1,0.6,1.6c0,0.6-0.3,1.3-0.6,1.8c-0.6,0.6-1.5,1-2.5,1c-1.8,0-3-0.8-3.3-2.5l2-0.5
				c0.1,0.8,0.6,1.1,1.5,1.1c0.5,0,0.6-0.3,0.6-0.6c0-0.6-0.5-0.5-1.3-0.8c-1.6-0.5-2.5-1.1-2.5-2.5c0-1.6,1.1-2.8,3.2-2.8
				C417.4,21,418.4,21.9,418.9,23.2 M409.3,29.7l-1-4.8l-1,4.8h-2l-1.8-8.3h2l1,4.8l1-4.8h1.8l1,4.8l1-4.8h1.8l-2,8.3H409.3
				L409.3,29.7z M402.9,23.4h-3.3v1.1h2.8v1.8h-2.8v1.3h3.3v2h-5.3v-8.3h5.3V23.4L402.9,23.4z M407.1,10.7c2.5,0,4.7,2.1,4.7,4.7
				s-2.1,4.5-4.7,4.5c-2.6,0-4.7-2-4.7-4.5S404.4,10.7,407.1,10.7 M414.6,17.6l-1.3,2.3h-2.8l2.7-4.7l-2.7-4.5h0.1
				c-2.9-2.2-6.3-3.8-9.9-4.7l-3,4.7h4.6l0.1,2.5h-3.2v1.1h2.7v2.5h-2.7v3h-2.6v-7.4l-5.7,9h1.5l2.5,4.2v-4.2h2.1v8.3h-2l-3-4.8v4.8
				h-2v-7.1l-5.3,8.4h35.1v-8.1c-0.4-1-0.9-2-1.4-3h-2.6L414.6,17.6L414.6,17.6z"/>
			<path class="st0" d="M393.6,5.2l-9,25.8h0.1L397,5.4C395.9,5.2,394.7,5.2,393.6,5.2"/>
			<path class="st0" d="M419.9,2.9h-17.3l-1.8,2.9c3.7,0.9,7.2,2.6,10.1,4.9h2.4l1.1,2l1-2h3l-2.7,4.3l1.3,2.3
				c1,1.5,1.9,3.1,2.6,4.9L419.9,2.9L419.9,2.9z"/>
			<path class="st0" d="M390.4,2.9h-5.8v3.5c1.7-0.5,3.5-1,5.3-1.2L390.4,2.9z"/>
			<path class="st0" d="M398.2,2.9h-3.8l-0.7,2c1.1,0,2.3,0.1,3.4,0.2L398.2,2.9z"/>
		</g>
		<g>
			<path class="st0" d="M567.4,34C567.4,34,567.3,34.1,567.4,34l-0.3,0v-0.2h0.2C567.3,33.8,567.4,33.9,567.4,34L567.4,34L567.4,34z
				 M567.9,34.2c0.1,0.1,0,0.3-0.1,0.5c-0.2,0.1-0.3,0.2-0.6,0.2c-0.4,0-0.7-0.3-0.7-0.7c0-0.2,0.1-0.5,0.3-0.6v1.2h0.3v-0.4h0.2
				l0.2,0.5l0.2-0.1l-0.2-0.4c0,0,0.1-0.1,0.2-0.1c0,0,0-0.1,0-0.2c0-0.1,0-0.1,0-0.2c-0.1-0.2-0.2-0.2-0.3-0.2h-0.5
				c0.1,0,0.2-0.1,0.3-0.1c0.2,0,0.5,0.1,0.6,0.3C567.9,33.9,568,34,567.9,34.2L567.9,34.2L567.9,34.2L567.9,34.2z M568,33.6
				c-0.2-0.2-0.5-0.4-0.8-0.4l0,0l0,0c-0.6,0.1-1,0.6-1,1.1c0,0.5,0.5,1,1,1c0.3,0,0.6-0.1,0.8-0.3c0.1-0.2,0.2-0.4,0.2-0.7
				C568.3,34,568.2,33.8,568,33.6"/>
			<path class="st0" d="M567.3,33.8H567v0.2h0.2c0,0,0.1,0,0.1,0v0L567.3,33.8C567.4,33.9,567.3,33.8,567.3,33.8"/>
			<path class="st0" d="M567.8,33.7c-0.2-0.2-0.3-0.3-0.6-0.3c-0.1,0-0.2,0-0.3,0.1h0.5c0,0,0.2,0,0.3,0.2c0,0,0,0.1,0,0.2
				s0,0.1,0,0.2c0,0-0.1,0.1-0.1,0.1l0.2,0.4l-0.2,0.2l-0.2-0.5H567v0.4h-0.3v-1.2c-0.2,0.1-0.3,0.4-0.3,0.6c0,0.4,0.3,0.7,0.7,0.7
				c0.2,0,0.4-0.1,0.6-0.2c0.1-0.2,0.2-0.3,0.2-0.5l0,0l0,0C568,34,567.9,33.9,567.8,33.7"/>
			<path class="st0" d="M524.2,18.5c0-0.1-0.2-0.2-0.3-0.2h-2l-0.1-0.5h4.2c0.1,0,0.2,0,0.3-0.2h6.2c0.3,0.3,0.8,0.7,1.3,1H524.2
				L524.2,18.5z M520.6,13.5h7.9c0.1,0,0.3-0.1,0.3-0.2h1.9v1c0,0,0,0.1,0,0.1h-2.6c0-0.1-0.2-0.2-0.3-0.2h-5.4l-0.4-0.3l-1-0.1
				L520.6,13.5L520.6,13.5z M519.8,12.8l-0.6-0.5l0-0.1h9.4c0.1,0,0.3-0.1,0.3-0.2h2v1h-2c0-0.1-0.1-0.1-0.2-0.1L519.8,12.8
				L519.8,12.8L519.8,12.8z M518.5,11l-0.1-0.3h1.3l0.1,0.1l0.1,0.3l0.8,0.1h-1.9L518.5,11z M520.2,5l0,0.5l0.7,0.1h-0.8L520,5.5
				l0-0.5H520.2L520.2,5z M528.4,8.6c0-0.1-0.2-0.2-0.3-0.2h-5.3l0.2-0.3l0.2-0.3h3.9c0.2,0,0.2,0,0.3-0.2h3.4v1H528.4L528.4,8.6z
				 M530.8,10.5v1h-2.1c-0.1-0.1-0.2-0.1-0.3-0.1h-7.5l-0.1-0.5l0.1-0.1h7.5c0.1,0,0.2-0.1,0.3-0.2L530.8,10.5L530.8,10.5z
				 M528.7,10.1c0-0.1-0.2-0.2-0.3-0.2h-6.7l0.6-0.3l0.1-0.4h5.7c0.1,0,0.2-0.1,0.3-0.2h2.4v1L528.7,10.1L528.7,10.1L528.7,10.1z
				 M521.3,6.9l0.5,0.1V6.3h3.8c0.1,0,0.2-0.1,0.2-0.1h4.9v1h-3.4c0-0.1-0.2-0.2-0.3-0.2h-4.7L521.9,7l0,0L521.3,6.9L521.3,6.9
				l-0.4-0.1V7h-0.3V7l-0.2-0.4l0.1-0.1h0.5L521.3,6.9L521.3,6.9z M521.3,5h2.3c0.1,0,0.2,0,0.3-0.2h6.9v1H526
				c-0.1-0.1-0.2-0.2-0.3-0.2h-4.4V5L521.3,5z M531.3,15.8h-3.8c0-0.1-0.2-0.2-0.3-0.2h-4.7l0.3-0.6h5.1c0.1,0,0.2,0,0.3-0.2h2.7
				C531,15.1,531.1,15.4,531.3,15.8 M532.1,17.1h-5.9c0-0.1-0.2-0.2-0.3-0.2h-3.8l0.2-0.4v-0.1h4.9c0.1,0,0.2,0,0.3-0.2h4
				C531.7,16.5,531.9,16.8,532.1,17.1 M539.7,4.2v9.3c0,0.4-0.4,2.3-2.4,2.3c-1.9,0-2.5-1.8-2.6-2.2V4.2h-4v0.2h-6.9
				c0-0.1-0.2-0.2-0.3-0.2h-4.6c-0.1,0-0.2,0.1-0.3,0.2h-0.4c0,0-0.5,0.1-0.6,0.4c0,0.2,0.2,0.4,0.2,0.4l-0.6,0.4h-0.6
				c-0.2,0-0.4,0.1-0.4,0.4c0,0,0,0,0,0.1l0,0.1v0.4L515.6,7h-0.5c-0.2,0-0.4,0.1-0.4,0.4c0,0.2,0.1,0.4,0.4,0.4h0.2l-0.2,0.6h-0.7
				c-0.2,0-0.4,0.1-0.4,0.4c0,0.2,0.1,0.4,0.4,0.4h1.2l-0.3,0.6h0.1l0,0.1h-1.5c-0.2,0-0.4,0.1-0.4,0.4c0,0.2,0.1,0.4,0.4,0.4h1.9
				l0,0.1l0.5,0.6h-2.7c-0.2,0-0.4,0.1-0.4,0.4c0,0.2,0.1,0.4,0.4,0.4h3.4l0.1,0.1l1.2,0.4v0h-4.6c-0.2,0-0.4,0.1-0.4,0.4
				c0,0.2,0.1,0.4,0.4,0.4h4.8l0,0.6v0.1h-4.3c-0.2,0-0.4,0.1-0.4,0.4c0,0.2,0.2,0.4,0.4,0.4h4l0.1,0.6h-3.4c-0.2,0-0.4,0.1-0.4,0.4
				c0,0.2,0.1,0.4,0.4,0.4h4.1l0.3,0.5h-3c-0.2,0-0.4,0.1-0.4,0.4c0,0.2,0.1,0.4,0.4,0.4h3.5l0.3,0.5h-1.3c-0.2,0-0.4,0.1-0.4,0.4
				c0,0.2,0.1,0.4,0.4,0.4h4.9c0.1,0,0.2,0,0.3-0.1h10.7c0.7,0.2,1.5,0.3,2.5,0.3c6-0.1,6.5-4.9,6.5-5.2V4.4L539.7,4.2L539.7,4.2z"
				/>
			<path class="st0" d="M568,34.9c-0.2,0.2-0.5,0.3-0.8,0.3c-0.5,0-1-0.5-1-1c0-0.5,0.4-1,1-1.1l0,0l0,0c0.3,0,0.6,0.2,0.8,0.4
				c0.1,0.2,0.2,0.4,0.2,0.6C568.3,34.5,568.2,34.7,568,34.9"/>
			<path class="st0" d="M564.7,27.9v7.2h-4V28l-5.1-7.7h4.6l2.6,4l2.5-4h4.4L564.7,27.9L564.7,27.9z"/>
			<rect x="508.8" class="st0" width="0.1" height="0.1"/>
			<rect x="508.8" y="39.9" class="st0" width="0.1" height="0.1"/>
			<path class="st0" d="M558.7,13.3l1.4-3.8l1.3,3.8C561.4,13.3,558.7,13.3,558.7,13.3z M562.2,4.2H558l-3.6,9.5c0,0,0-1-0.8-2.1
				c-0.6-0.9-1.4-1.3-3.4-1.9c-1.8-0.5-2.1-1-2-1.7c0.2-0.6,0.7-0.9,1.4-0.9c1.5,0,2.8,1,2.8,1l1.5-2.8c0,0-1.7-1.3-4.5-1.4
				c-0.9,0-2.4,0-3.6,0.9c-1.2,0.9-1.7,2.3-1.8,3.5c0,1.2,0.2,2.6,1.2,3.4c1.1,0.9,2.7,1.1,3.7,1.4c0.9,0.3,1.4,0.7,1.1,1.7
				c-0.2,0.8-1.1,1.2-2.4,1c-1.5-0.3-2.6-1.5-2.7-1.5l-1.7,3.1c0,0,2.5,1.9,5.6,1.9c2.8,0,4-1.6,4-1.6l-0.5,1.4h4.1l0.9-2.6h5l1,2.6
				h4.2L562.2,4.2L562.2,4.2z"/>
			<path class="st0" d="M551.5,29.6l1.4-4.2l1.4,4.2C554.4,29.6,551.5,29.6,551.5,29.6z M538.8,31.7v-8.2c0,0,5-1,4.9,4
				C543.8,32.8,538.9,31.7,538.8,31.7 M527,31.8c-2.3,0-4.1-1.7-4.2-4c0-2.2,1.9-4,4.2-4c2.4,0,4.2,1.8,4.2,4
				C531.2,30.1,529.4,31.8,527,31.8 M554.9,20.3h-4l-3.3,8.7c0-0.4,0.1-0.9,0.1-1.4c0-6.4-5.7-7.2-6.3-7.2h-6.8v4.9
				c-1-3-4.1-5.1-7.6-5.2c-2.6,0-4.9,1.2-6.4,3v-2.8H511v3.4h2.8v11.4h4V23.6h2.5c-0.8,1.2-1.2,2.6-1.2,4.1c0,4.2,3.6,7.7,8.1,7.7
				c3.5,0,6.5-2.1,7.6-5.1v4.8h6.5c0.3,0,3.3-0.2,5.1-2.7l-1,2.7h4l1-2.6h4.9l1,2.6h4.1L554.9,20.3L554.9,20.3z"/>
		</g>
		<g>
			<path class="st0" d="M602.3,34.7c0.4,0,1.6-0.4,1.6-1.2h3.4c-0.1,2.1-3.7,2.7-5.3,2.7c-3.3,0-6.1-0.6-5.9-3.8
				c0.1-2.3,2.2-3.9,6.6-3.8c2.4,0,4.7,0.8,4.7,2.5H604c-0.2-0.8-0.8-1-1.6-1.1c-2.4-0.2-2.8,1.6-2.8,2.3
				C599.6,33.6,600,34.7,602.3,34.7"/>
			<path class="st0" d="M618.9,36h-4.2l-3.9-5.3h0V36H608v-7.3h4.4l3.7,5.3h0v-5.3h2.8L618.9,36L618.9,36z"/>
			<path class="st0" d="M636.1,34.7c0.4,0,1.6-0.4,1.6-1.2h3.4c-0.1,2.1-3.7,2.7-5.3,2.7c-3.2,0-6.1-0.6-5.9-3.8
				c0.1-2.3,2.2-3.9,6.6-3.8c2.4,0,4.7,0.8,4.7,2.5h-3.4c-0.1-0.8-0.8-1-1.5-1.1c-2.4-0.2-2.8,1.6-2.8,2.3
				C633.4,33.6,633.8,34.7,636.1,34.7"/>
			<path class="st0" d="M633.8,17.6l-12.5,8.4l4.2-10.1l2-4.7c0.8-1.5,2.3-2.5,4-2.5c1.6,0,3,0.7,3.9,2.1c0.9,1.4,1,3.6,0,5
				C635,16.6,634.4,17.1,633.8,17.6"/>
			<path class="st0" d="M627.5,9.7l-6.2,14.7l-0.3-1.6l-1.8-12c-0.1-0.7,0.2-1.3,0.8-1.7l0.9-0.5c0.1-0.2-0.2-0.2-0.3-0.3h-1.7
				c-0.1-1.7,0.6-3.3,2.1-4.2c1.1-0.7,2.9-0.9,4.1-0.3c1.6,0.6,2.8,2.4,2.8,4.2C627.9,8.4,627.8,9.1,627.5,9.7"/>
			<path class="st0" d="M615.6,24.3l-6.1-14.7c-0.6-1.6-0.4-3.6,0.7-4.9c1.2-1.3,2.9-1.9,4.6-1.4c1.5,0.3,2.8,1.8,3.2,3.3
				c0.2,0.5,0.2,1.2,0.1,1.8L615.6,24.3z"/>
			<path class="st0" d="M602.6,17c-1.2-1.1-1.8-2.5-1.6-4.2c0.2-1.7,1.5-3.3,3.1-3.9c1.6-0.5,3.4-0.1,4.6,1.1c0.5,0.5,0.8,1,1.1,1.6
				l5.9,14.3L602.6,17z"/>
			<path class="st0" d="M601.2,27.5c-1.6-0.2-2.9-1-3.6-2.5c-0.8-1.5-0.6-3.6,0.4-5c1.1-1.3,2.8-2,4.4-1.7c0.7,0.1,1.2,0.4,1.8,0.7
				l12.7,8.5L601.2,27.5L601.2,27.5z"/>
			<path class="st0" d="M635.7,27.5c1.6-0.2,2.9-1,3.6-2.5c0.8-1.5,0.6-3.6-0.4-5c-1.1-1.3-2.8-2-4.4-1.7c-0.7,0.1-1.2,0.4-1.8,0.7
				L620,27.5L635.7,27.5L635.7,27.5z"/>
			<path class="st0" d="M623.8,34.5h-0.9v-1.5h1.1c1.2,0,2,0.2,2,0.8C626,34.3,625.4,34.5,623.8,34.5 M622.9,30.1h1.1
				c1.2,0,1.8,0.2,1.8,0.8c0,0.5-0.7,0.6-2.1,0.6h-0.9V30.1L622.9,30.1z M627.1,32.2L627.1,32.2c1.4-0.2,2-1,2-1.7
				c0-1.1-1.5-1.8-4.1-1.8h-5.3V36h5.3c2.8,0,4.3-0.7,4.3-2C629.5,33.4,628.8,32.3,627.1,32.2"/>
		</g>
		<g>
			<path class="st0" d="M765.5,9.4L765.5,9.4L765.5,9.4c0,0-0.2-0.1-0.3-0.1c-0.7,0-1.4,0.4-1.4,1.5c-0.4,5.5-0.9,11.1-1.6,16.4l0,0
				l0,0l0,0c0.4-0.1,0.8,0,1.1,0.2l0,0c0.8-5.4,2.8-13.4,3.4-15.7c0-0.3,0.2-0.7,0.2-0.9C766.8,10,766.3,9.5,765.5,9.4"/>
			<path class="st0" d="M712.2,11.5c0.1,2.8,0.2,5.7,0.2,8.6c-3.4,0.1-6.9,0.1-10.2,0c0-2.8,0.1-5.7,0.2-8.6c-1,0.2-2,0.2-3.1,0
				c0.2,6.1,0.2,12.2,0,18.4c1-0.2,2-0.2,3,0l0,0l0,0c-0.1-2.8-0.2-5.7-0.2-8.6c3.4,0,6.9,0,10.2,0c0,2.8-0.1,5.7-0.2,8.6l0,0l0,0
				c1-0.2,2-0.2,3,0c-0.2-6.1-0.2-12.2,0-18.4C714.3,11.8,713.3,11.8,712.2,11.5"/>
			<path class="st0" d="M689.3,14.7c1,2.8,2.1,5.7,3.3,8.6l0,0c-2.2,0.1-4.3,0.1-6.5,0l0,0C687.4,19.9,688.7,16.6,689.3,14.7
				 M690.4,11.5L690.4,11.5L690.4,11.5c-0.7,0.2-1.4,0.2-2.1,0l0,0c-2.5,6.2-5.3,13.2-7.9,18.4l0,0l0,0l0,0l0,0l0,0
				c1.1-0.3,2.3-0.2,3,0l0,0l0,0c0.6-1.6,1.4-3.5,2.1-5.4l0,0c2.5,0,5-0.1,7.5,0c0.7,1.8,1.4,3.6,2.1,5.4l0,0c1.1-0.3,2.2-0.2,3,0
				l0,0C696.5,26.5,692.8,17.5,690.4,11.5"/>
			<path class="st0" d="M684.9,9.1L684.9,9.1L684.9,9.1c-1.1,0.2-2.1,0.2-3.1,0c-0.8,1.6-4.1,6.9-6.1,10.3
				c-2.1-3.4-4.5-7.4-6.1-10.3c-1.2,0.2-1.8,0.3-3.1,0c2.5,3.8,6.5,11,7.9,13.3l-0.2,9.9c0,0,0.9-0.1,1.5-0.1c0.6,0,1.4,0.1,1.4,0.1
				l-0.2-9.9C679.5,18,683.7,10.6,684.9,9.1"/>
			<path class="st0" d="M726.1,29.1c-4.3,0-6.9-3.1-6.9-8.4c0-5.9,3.1-8.3,6.7-8.4c0,0,0.1,0,0.1,0c4,0,6.9,2.7,6.9,8.4
				C733,26.4,730.1,29.1,726.1,29.1 M726.1,11.3c-6.5,0-9.9,4.1-9.9,9.5c0,5.8,3.7,9.4,9.9,9.4c6.7,0,10-4,10-9.4
				C736,14.9,732.1,11.3,726.1,11.3"/>
			<path class="st0" d="M740.1,20.6c0-7.2,4.4-9.3,8.4-9.3c4.9,0,8.5,2.9,8.5,9.5c0,7.1-4.3,9.4-8.4,9.4
				C744.2,30.2,740.1,27.6,740.1,20.6 M748.5,10.2c-6.5,0-11.4,3.7-11.4,10.5c0,5.6,3.3,10.6,11.4,10.6c6.9,0,11.4-3.8,11.4-10.5
				C760,14.5,755.8,10.2,748.5,10.2"/>
			<path class="st0" d="M761.9,29.4c-0.9,0-1.4,0.7-1.4,1.5c0,0.9,0.7,1.4,1.6,1.4c0.6,0,1.4-0.4,1.4-1.5
				C763.6,30,762.9,29.4,761.9,29.4"/>
		</g>
	</g>
</g>
<g>
	<path class="st0" d="M0,27.8l6-15.6h2.2l6.1,15.6H12l-1.6-4.2H3.8l-1.6,4.2H0z M4.3,22h5.5C9,19.4,8,16.9,7.1,14.4
		C6.2,16.9,5.3,19.5,4.3,22z"/>
	<path class="st0" d="M20.2,28.1c-0.9,0-1.8-0.1-2.5-0.4c-0.7-0.3-1.3-0.6-1.7-0.9l0.5-1.4c0.4,0.3,0.9,0.5,1.5,0.8
		c0.6,0.2,1.3,0.3,1.9,0.3c1.4,0,2.2-0.5,2.2-1.6c0-0.4-0.1-0.8-0.5-1c-0.3-0.2-0.9-0.5-1.9-0.8l-0.9-0.3c-0.3-0.1-0.7-0.2-0.9-0.3
		s-0.5-0.2-0.7-0.4s-0.4-0.3-0.6-0.5c-0.1-0.2-0.3-0.4-0.4-0.7c-0.1-0.3-0.1-0.6-0.1-1c0-0.5,0.1-1,0.3-1.4c0.2-0.4,0.5-0.7,0.9-0.9
		c0.4-0.2,0.8-0.4,1.2-0.5c0.4-0.1,0.9-0.2,1.5-0.2c1.4,0,2.7,0.3,3.6,0.9l-0.5,1.4c-0.9-0.5-1.9-0.7-2.9-0.7
		c-0.7,0-1.2,0.1-1.6,0.3c-0.4,0.2-0.6,0.6-0.6,1c0,0.4,0.1,0.7,0.3,0.9c0.2,0.2,0.7,0.4,1.4,0.6c0.6,0.2,1,0.3,1.1,0.4
		c0.4,0.2,0.8,0.3,1.1,0.4c0.2,0.1,0.5,0.2,0.9,0.4c0.3,0.2,0.5,0.4,0.7,0.6c0.1,0.2,0.3,0.4,0.4,0.8c0.1,0.3,0.1,0.6,0.1,1
		c0,0.6-0.1,1.1-0.3,1.5c-0.2,0.4-0.5,0.8-0.9,1s-0.8,0.4-1.2,0.5C21.1,28,20.6,28.1,20.2,28.1z"/>
	<path class="st0" d="M37.9,26.3c0.4,0,0.8,0,1.1-0.1c0.3-0.1,0.6-0.2,0.9-0.3c0.2-0.1,0.4-0.4,0.6-0.5c0.2-0.2,0.3-0.4,0.4-0.7
		c0.1-0.3,0.1-0.6,0.1-0.9c0-0.3,0-0.7-0.1-0.9c-0.1-0.2-0.2-0.5-0.4-0.7c-0.2-0.2-0.5-0.4-0.9-0.6c-0.4-0.2-0.9-0.3-1.5-0.5
		c0,0-0.2,0-0.4-0.1c-0.2,0-0.4-0.1-0.5-0.1c-1.5-0.4-2.6-0.9-3.2-1.6c-0.7-0.6-1-1.6-1-2.8c0-0.9,0.2-1.6,0.7-2.2
		c0.4-0.6,1-1.1,1.8-1.4c0.7-0.3,1.6-0.4,2.6-0.4c2.1,0,3.7,0.5,4.8,1.6l-1,1.4c-0.3-0.3-0.8-0.6-1.5-0.9c-0.6-0.2-1.3-0.4-2-0.4
		c-1,0-1.8,0.2-2.3,0.6c-0.6,0.4-0.9,0.9-0.9,1.7c0,0.5,0,0.9,0.2,1.2c0.1,0.3,0.4,0.5,0.7,0.8c0.3,0.2,0.9,0.4,1.6,0.7
		c0,0,0.1,0,0.4,0.1c0.2,0,0.4,0.1,0.5,0.1c0.9,0.2,1.6,0.5,2.2,0.8c0.6,0.3,1,0.6,1.4,1c0.3,0.4,0.6,0.8,0.7,1.2
		c0.1,0.4,0.2,1,0.2,1.6c0,0.7-0.2,1.3-0.4,1.9c-0.3,0.5-0.6,1-1.1,1.3c-0.5,0.3-1,0.6-1.7,0.8s-1.3,0.2-2,0.2
		c-1.1,0-2.2-0.2-3.1-0.5c-0.9-0.4-1.6-0.8-2-1.2l0.9-1.5c0.4,0.3,1,0.7,1.8,1C36.3,26.2,37.1,26.3,37.9,26.3z"/>
	<path class="st0" d="M51.2,28.1c-1.7,0-3.1-0.5-4.2-1.5c-1-1-1.5-2.4-1.5-4.1s0.5-3.1,1.5-4.2c1-1.1,2.3-1.6,3.9-1.6
		c1,0,1.9,0.2,2.6,0.7c0.7,0.5,1.3,1.1,1.6,1.9s0.5,1.8,0.5,2.8c0,0.1,0,0.3,0,0.5h-8.2c0,1.2,0.4,2.2,1,2.8c0.7,0.6,1.6,1,2.7,1
		c1.3,0,2.5-0.4,3.5-1.2l0.6,1.4C54.2,27.6,52.8,28.1,51.2,28.1z M47.6,21.2h6.3c0-1-0.3-1.8-0.9-2.3c-0.5-0.5-1.2-0.8-2-0.8
		c-0.9,0-1.6,0.3-2.2,0.8C48.1,19.5,47.7,20.3,47.6,21.2z"/>
	<path class="st0" d="M63.7,28.1c-1.7,0-3.1-0.5-4.2-1.5c-1-1-1.5-2.4-1.5-4.1s0.5-3.1,1.5-4.2c1-1.1,2.3-1.6,3.9-1.6
		c1,0,1.9,0.2,2.6,0.7c0.7,0.5,1.3,1.1,1.6,1.9C68,20,68.2,21,68.2,22c0,0.1,0,0.3-0.1,0.5h-8.1c0,1.2,0.4,2.2,1,2.8
		c0.7,0.6,1.6,1,2.7,1c1.3,0,2.5-0.4,3.5-1.2l0.6,1.4C66.7,27.6,65.3,28.1,63.7,28.1z M60.1,21.2h6.3c-0.1-1-0.3-1.8-0.9-2.3
		c-0.5-0.5-1.2-0.8-2-0.8c-0.9,0-1.6,0.3-2.2,0.8C60.6,19.5,60.2,20.3,60.1,21.2z"/>
	<path class="st0" d="M71.3,27.8v-8c0-0.5,0-1-0.1-1.5c0-0.5-0.1-0.9-0.1-1.1l0-0.4h2v1.7c0.4-0.6,0.9-1.1,1.6-1.5
		c0.7-0.3,1.4-0.5,2.1-0.5c1.4,0,2.4,0.4,3,1.2c0.6,0.8,1,2.1,1,3.8v6.2h-2v-6.1c0-1.2-0.2-2.1-0.5-2.6c-0.3-0.5-1-0.8-1.9-0.8
		c-0.8,0-1.6,0.3-2.2,0.8c-0.7,0.5-1,1.2-1.1,1.9v6.9C73.1,27.8,71.3,27.8,71.3,27.8z"/>
	<path class="st0" d="M91.4,27.8V12.2h2v15.6H91.4z"/>
	<path class="st0" d="M97.4,27.8v-8c0-0.5,0-1-0.1-1.5c0-0.5-0.1-0.9-0.1-1.1l-0.1-0.4h2v1.7c0.4-0.6,0.9-1.1,1.6-1.5
		c0.7-0.3,1.4-0.5,2.1-0.5c1.4,0,2.4,0.4,3,1.2c0.6,0.8,1,2.1,1,3.8v6.2h-2v-6.1c0-1.2-0.2-2.1-0.5-2.6c-0.3-0.5-1-0.8-1.9-0.8
		c-0.8,0-1.6,0.3-2.2,0.8c-0.7,0.5-1,1.2-1.1,1.9v6.9C99.3,27.8,97.4,27.8,97.4,27.8z"/>
	<path class="st0" d="M110.6,18.9v-2.4h2.3v2.4H110.6z M110.6,27.8v-2.4h2.3v2.4H110.6z"/>
</g>
<g>
	<path class="st1" d="M446.7,1.6H483v36.3h-36.3V1.6z"/>
	<path class="st2" d="M450.9,22.3c-2,0-3.7-1.7-3.7-3.7s1.7-3.7,3.7-3.7c0.7,0,1.4,0.2,2,0.6l10.1,6.8H450.9z M451.9,13.9
		c-1.7-1.1-2.2-3.4-1.1-5.1c1.1-1.7,3.4-2.2,5.1-1.1c0.6,0.4,1.1,0.9,1.4,1.6l5.2,11.8L451.9,13.9L451.9,13.9z M478.7,22.3
		c2.1,0,3.7-1.7,3.7-3.7s-1.7-3.7-3.7-3.7c-0.7,0-1.4,0.2-2,0.6l-10.1,6.8L478.7,22.3L478.7,22.3L478.7,22.3z M477.7,13.9
		c1.7-1.1,2.2-3.4,1.1-5.1s-3.4-2.2-5.1-1.1c-0.6,0.4-1.1,1-1.4,1.6l-5.2,11.8L477.7,13.9L477.7,13.9z M466.3,7
		c-0.3,0.2-1,0.3-0.8,1.6l1.6,11l5.2-12c0.8-1.9,0-4.1-1.9-4.9c-1.9-0.8-4.1,0-4.9,1.9c-0.3,0.6-0.4,1.3-0.3,1.9l1,0
		C466.7,6.5,467,6.7,466.3,7L466.3,7z M457.4,7.6c-0.8-1.9,0-4.1,1.9-4.9c1.9-0.8,4.1,0,4.9,1.9c0.3,0.7,0.4,1.4,0.3,2.1l-1.8,12.9
		L457.4,7.6L457.4,7.6z M480.1,36.6c-0.6,0.2-1.5,0.5-2.3,0.5c-3.8,0-6.9-2.9-6.9-6.5c0-3.6,3.1-6.5,6.9-6.5c0.8,0,1.7,0.2,2.3,0.5
		v2.5c-0.7-0.5-1.5-0.7-2.3-0.7c-2.3,0-4.2,1.9-4.2,4.2c0,2.3,1.9,4.2,4.2,4.2c0.9,0,1.7-0.3,2.3-0.7V36.6L480.1,36.6z M457.3,24.5
		h2.5v12.4l-7.7-7.1v6.8h-2.5V24.3l7.7,7.1V24.5L457.3,24.5z M468.3,30.2c0.8-0.6,1.4-1.1,1.4-2.5c0-1.9-1.5-3.1-3.4-3.1h-5v12.2
		h5.6c2,0,3.5-1.5,3.5-3.5C470.4,31.2,468.7,30.3,468.3,30.2L468.3,30.2z M463.8,26.4l1.9,0c0.9,0,1.6,0.7,1.6,1.6
		c0,0.9-0.7,1.6-1.6,1.6h-1.9V26.4z M466.1,34.8h-2.3v-3.5l2.3,0c1,0,1.8,0.8,1.8,1.8S467.1,34.8,466.1,34.8z"/>
</g>
</svg>
